<svg width="68" height="52" viewBox="0 0 68 52" fill="none" xmlns="http://www.w3.org/2000/svg">
<path d="M17.8484 29.4291C17.7359 31.5255 18.4555 33.5815 19.8508 35.15C21.2462 36.7186 23.2044 37.6728 25.2995 37.8053C27.3901 37.6664 29.3418 36.7093 30.7317 35.1415C32.1216 33.5737 32.8377 31.5213 32.725 29.4291C32.838 27.3343 32.1226 25.2791 30.7333 23.7072C29.3441 22.1352 27.3924 21.1727 25.2995 21.0273C23.2021 21.1663 21.2439 22.126 19.8492 23.6987C18.4545 25.2713 17.7357 27.3302 17.8484 29.4291ZM27.5863 29.4291C27.5863 31.1763 26.5328 32.6665 25.2995 32.6665C24.0662 32.6665 22.9871 31.1763 22.9871 29.4291C22.9871 27.682 24.0406 26.1661 25.2995 26.1661C26.5585 26.1661 27.5863 27.6563 27.5863 29.4291ZM42.1545 21.0273C40.0617 21.1727 38.11 22.1352 36.7207 23.7072C35.3315 25.2791 34.6161 27.3343 34.7291 29.4291C34.6163 31.5213 35.3325 33.5737 36.7224 35.1415C38.1123 36.7093 40.0639 37.6664 42.1545 37.8053C44.2497 37.6728 46.2079 36.7186 47.6032 35.15C48.9986 33.5815 49.7182 31.5255 49.6057 29.4291C49.7184 27.3302 48.9996 25.2713 47.6049 23.6987C46.2102 22.126 44.2519 21.1663 42.1545 21.0273ZM42.1545 32.6665C40.9212 32.6665 39.8678 31.1763 39.8678 29.4291C39.8678 27.682 40.9212 26.1661 42.1545 26.1661C43.3878 26.1661 44.467 27.6563 44.467 29.4291C44.467 31.202 43.4135 32.6665 42.1545 32.6665Z" fill="black"/>
<path d="M61.0393 11.752L60.8595 11.5208V11.2638C56.3994 5.84703 50.2445 2.09074 43.3878 0.600982C43.0556 0.504992 42.7075 0.477044 42.3642 0.518815C42.021 0.560585 41.6897 0.671215 41.3902 0.844073C41.0907 1.01693 40.8292 1.24846 40.6213 1.5248C40.4135 1.80113 40.2635 2.11658 40.1804 2.45225C40.0974 2.78792 40.083 3.1369 40.138 3.47828C40.193 3.81966 40.3164 4.14643 40.5007 4.43899C40.6851 4.73155 40.9265 4.9839 41.2107 5.18092C41.4949 5.37793 41.8159 5.51555 42.1545 5.58554C47.8246 6.80117 52.9306 9.86477 56.6714 14.2957C60.137 22.2493 61.9466 30.8253 61.99 39.5011C58.4117 42.8386 53.9547 45.085 49.1432 45.9759V44.6655C52.3107 43.4367 55.2801 41.7485 57.9561 39.6553C58.491 39.2294 58.8349 38.6084 58.912 37.929C58.9891 37.2496 58.7931 36.5674 58.3672 36.0325C57.9413 35.4975 57.3204 35.1537 56.6409 35.0766C55.9615 34.9995 55.2793 35.1955 54.7444 35.6214C48.7133 40.195 41.292 42.5539 33.7271 42.3017C26.2232 42.5124 18.8721 40.1558 12.8895 35.6214C12.6247 35.4105 12.3209 35.2538 11.9955 35.1604C11.67 35.0669 11.3294 35.0384 10.993 35.0766C10.3136 35.1537 9.69264 35.4975 9.26674 36.0325C8.84085 36.5674 8.64489 37.2496 8.72199 37.929C8.79908 38.6084 9.14291 39.2294 9.67784 39.6553C12.3355 41.7479 15.2879 43.4362 18.4394 44.6655V45.9759C13.6279 45.085 9.17091 42.8386 5.59256 39.5011C5.65215 30.8218 7.47929 22.2456 10.9625 14.2957C14.7034 9.86477 19.8094 6.80117 25.4794 5.58554C26.1175 5.40116 26.6594 4.97683 26.9914 4.40157C27.3235 3.82631 27.4198 3.14482 27.2603 2.50005C27.1008 1.85529 26.6978 1.29735 26.1358 0.943288C25.5738 0.589224 24.8966 0.466544 24.2461 0.600982C17.3894 2.09074 11.2345 5.84703 6.77447 11.2638C6.77447 11.2638 6.77447 11.4437 6.77447 11.5208L6.59461 11.752C1.61005 22.0294 1.04479 31.4076 0.505227 40.3747C0.481989 40.7384 0.536412 41.103 0.664879 41.4441C0.793347 41.7852 0.992919 42.095 1.25034 42.3531C6.47238 47.6753 13.4462 50.9249 20.8803 51.5C21.5543 51.4972 22.2002 51.2296 22.6788 50.7549C22.9216 50.5169 23.1147 50.2332 23.247 49.92C23.3793 49.6069 23.4482 49.2706 23.4496 48.9306V46.3613C30.21 47.9428 37.2441 47.9428 44.0045 46.3613V48.9306C44.0059 49.2706 44.0748 49.6069 44.2071 49.92C44.3394 50.2332 44.5325 50.5169 44.7753 50.7549C45.2539 51.2296 45.8998 51.4972 46.5738 51.5C54.081 51.0205 61.1539 47.813 66.4607 42.4815C66.7181 42.2235 66.9177 41.9136 67.0462 41.5725C67.1746 41.2314 67.229 40.8669 67.2058 40.5031C66.5892 31.4076 66.0239 22.1322 61.0393 11.752Z" fill="black"/>
<path d="M52.9715 14.8098C53.1274 14.5097 53.2224 14.1817 53.2512 13.8447C53.28 13.5077 53.242 13.1684 53.1394 12.8461C53.0367 12.5238 52.8715 12.225 52.6531 11.9668C52.4347 11.7085 52.1674 11.4959 51.8667 11.3412C46.2086 8.64424 39.9929 7.32362 33.727 7.48717C27.4612 7.32362 21.2454 8.64424 15.5873 11.3412C15.2866 11.4959 15.0194 11.7085 14.801 11.9668C14.5826 12.225 14.4173 12.5238 14.3147 12.8461C14.212 13.1684 14.174 13.5077 14.2028 13.8447C14.2316 14.1817 14.3267 14.5097 14.4825 14.8098C14.7995 15.4128 15.343 15.8651 15.9934 16.0675C16.6439 16.2699 17.348 16.2056 17.9512 15.889C22.8823 13.5828 28.2856 12.4652 33.727 12.6259C39.1684 12.4652 44.5717 13.5828 49.5029 15.889C49.8663 16.0853 50.2718 16.191 50.6848 16.1973C51.1566 16.1983 51.6196 16.0693 52.0229 15.8246C52.4263 15.5798 52.7545 15.2288 52.9715 14.8098Z" fill="black"/>
</svg>
