<svg width="57" height="52" viewBox="0 0 57 52" fill="none" xmlns="http://www.w3.org/2000/svg">
<path d="M54.6297 1.70224C53.9049 1.10105 53.0303 0.707041 52.0987 0.562139C51.1672 0.417238 50.2138 0.526869 49.3398 0.879364L3.72175 19.2434C2.74618 19.6436 1.91575 20.3302 1.34068 21.212C0.7656 22.0938 0.47308 23.1291 0.50194 24.1806C0.530799 25.232 0.879675 26.2499 1.50226 27.099C2.12485 27.9481 2.9917 28.5884 3.98776 28.9348L13.2153 32.1347L18.3585 49.0933C18.4284 49.3199 18.5298 49.5355 18.6598 49.7339C18.6796 49.7644 18.7074 49.787 18.7284 49.8166C18.8786 50.0256 19.0601 50.2103 19.2666 50.3643C19.3253 50.4089 19.3815 50.4507 19.4443 50.4903C19.6859 50.6502 19.9536 50.7671 20.2353 50.8358L20.2654 50.8383L20.2825 50.8456C20.4518 50.88 20.6242 50.8974 20.7971 50.8977C20.8137 50.8977 20.8284 50.8898 20.8449 50.8895C21.1057 50.8849 21.3643 50.8401 21.6113 50.7567C21.6688 50.7372 21.7181 50.7045 21.7738 50.681C21.9581 50.6048 22.1326 50.5072 22.2939 50.3902C22.423 50.2817 22.5521 50.1732 22.6814 50.0649L29.5598 42.4927L39.8189 50.4168C40.7221 51.1179 41.8338 51.4991 42.9784 51.5C44.1778 51.4985 45.3402 51.0858 46.2708 50.3313C47.2013 49.5768 47.8434 48.5262 48.0894 47.3557L56.3946 6.7041C56.5828 5.78916 56.518 4.84042 56.2071 3.95937C55.8963 3.07832 55.351 2.29812 54.6297 1.70224ZM21.8064 32.9427C21.4534 33.2932 21.2122 33.7399 21.1129 34.2266L20.325 38.0439L18.3291 31.4624L28.6773 26.0894L21.8064 32.9427ZM42.9387 46.4039L30.8152 37.0397C30.3079 36.649 29.6717 36.4631 29.0331 36.5191C28.3946 36.5751 27.8007 36.869 27.3697 37.3421L25.1668 39.7665L25.9453 35.9938L43.9753 18.0164C44.4056 17.5879 44.6678 17.0198 44.7144 16.4152C44.7609 15.8105 44.5888 15.2092 44.2291 14.7202C43.8694 14.2312 43.3459 13.8868 42.7535 13.7494C42.1611 13.6121 41.5389 13.6908 40.9997 13.9713L15.1238 27.4045L5.64334 23.9453L51.408 5.69028L42.9387 46.4039Z" fill="black"/>
</svg>
