<svg width="52" height="52" viewBox="0 0 52 52" fill="none" xmlns="http://www.w3.org/2000/svg">
<path fill-rule="evenodd" clip-rule="evenodd" d="M50.6701 5.33681C51.7765 4.23031 51.7765 2.43636 50.6701 1.32986C49.5637 0.223382 47.7696 0.223382 46.6632 1.32986L29.8193 18.1737L17.708 1.65784C17.1743 0.930015 16.3257 0.5 15.4232 0.5H3.33333C2.26565 0.5 1.2886 1.10021 0.806 2.05261C0.32337 3.00501 0.417125 4.14783 1.04851 5.00883L18.7902 29.2028L1.32986 46.6632C0.223382 47.7696 0.223382 49.5637 1.32986 50.6701C2.43636 51.7765 4.23031 51.7765 5.33681 50.6701L22.1807 33.8262L34.292 50.3423C34.8258 51.0699 35.6744 51.5 36.5768 51.5H48.6667C49.7343 51.5 50.7115 50.8999 51.194 49.9473C51.6765 48.995 51.583 47.8521 50.9515 46.991L33.2097 22.7972L50.6701 5.33681ZM27.0492 23.9784C27.1367 24.1243 27.2384 24.2637 27.3546 24.3952L43.0754 45.8333H38.0128L8.92458 6.16667H13.9874L27.0492 23.9784Z" fill="black"/>
</svg>
